<?xml version="1.0" standalone="no"?>
<!DOCTYPE svg PUBLIC "-//W3C//DTD SVG 20010904//EN"
 "http://www.w3.org/TR/2001/REC-SVG-20010904/DTD/svg10.dtd">
<svg version="1.0" xmlns="http://www.w3.org/2000/svg"
 width="149.000000pt" height="17.000000pt" viewBox="0 0 149.000000 17.000000"
 preserveAspectRatio="xMidYMid meet">
<metadata>
Created by potrace 1.16, written by Peter Selinger 2001-2019
</metadata>
<g transform="translate(0.000000,17.000000) scale(0.036520,-0.013821)"
fill="#000000" stroke="none">
<path d="M0 615 l0 -615 2040 0 2040 0 0 615 0 615 -2040 0 -2040 0 0 -615z
m1476 224 c66 -34 101 -98 85 -157 -11 -37 -39 -70 -86 -98 -17 -9 -14 -19 39
-117 l58 -107 -84 0 -83 0 -48 95 -47 95 -50 0 -50 0 0 -95 0 -95 -80 0 -80 0
0 248 c0 137 3 252 8 256 4 5 88 6 188 4 169 -4 184 -5 230 -29z m362 -226 l2
-253 -80 0 -80 0 0 255 0 256 78 -3 77 -3 3 -252z m395 247 c85 -13 132 -36
184 -93 118 -128 62 -321 -112 -386 -47 -18 -78 -21 -199 -21 l-143 0 -8 244
c-4 135 -4 249 0 255 8 14 186 14 278 1z m797 -45 l0 -55 -145 0 -145 0 0 -45
0 -45 115 0 115 0 0 -55 0 -55 -115 0 -115 0 0 -45 0 -45 145 0 145 0 0 -55 0
-55 -225 0 -225 0 0 255 0 255 225 0 225 0 0 -55z"/>
<path d="M1210 711 l0 -61 73 0 c85 0 117 16 117 59 0 42 -22 54 -111 59 l-79
5 0 -62z"/>
<path d="M2110 609 l0 -152 60 6 c74 6 106 26 131 80 24 53 24 91 0 144 -24
52 -63 73 -136 73 l-55 0 0 -151z"/>
</g>
</svg>
